<?xml version="1.0" encoding="UTF-8"?>
<svg width="225px" height="21px" viewBox="0 0 225 21" version="1.1" xmlns="http://www.w3.org/2000/svg" xmlns:xlink="http://www.w3.org/1999/xlink">
    <!-- Generator: Sketch 64 (93537) - https://sketch.com -->
    <title>jowo studio黑红</title>
    <desc>Created with Sketch.</desc>
    <defs>
        <path d="M18.424,28 C21.896,28 24.024,26.18 24.948,22.932 L29.008,8.82 C29.092,8.54 28.98,8.4 28.7,8.4 L26.04,8.4 C25.76,8.4 25.564,8.54 25.48,8.82 L21.504,22.652 C21.056,24.276 20.16,24.892 18.592,24.892 L0.84,24.892 C0.56,24.892 0.392,25.032 0.308,25.312 L-0.336,27.58 C-0.42,27.86 -0.336,28 -0.056,28 L18.424,28 Z" id="path-1"></path>
        <path d="M41.548,28.14 C44.6,28.14 46.616,26.376 47.456,23.408 L48.828,18.62 C49.668,15.652 48.464,13.888 45.384,13.888 L36.452,13.888 C33.372,13.888 31.356,15.652 30.516,18.62 L29.172,23.38 C28.332,26.348 29.536,28.14 32.616,28.14 L41.548,28.14 Z M41.688,25.116 L33.932,25.116 C32.728,25.116 32.168,24.528 32.532,23.352 L33.876,18.676 C34.212,17.5 35.08,16.884 36.34,16.884 L44.04,16.884 C45.272,16.884 45.804,17.5 45.468,18.676 L44.124,23.352 C43.76,24.528 42.92,25.116 41.688,25.116 Z M58.46,28 C58.796,28 58.964,27.832 59.3,27.44 L68.092,17.444 L71.088,27.44 C71.2,27.832 71.256,28 71.592,28 L74.084,28 C74.42,28 74.588,27.832 74.924,27.44 L86.236,14.476 C86.488,14.168 86.32,14 86.04,14 L82.932,14 C82.624,14 82.372,14.14 82.092,14.476 L73.916,23.94 L73.58,23.94 L70.808,14.476 C70.696,14.14 70.556,14 70.248,14 L67.392,14 C67.084,14 66.804,14.14 66.552,14.476 L58.348,23.94 L58.012,23.94 L55.268,14.476 C55.156,14.14 55.016,14 54.708,14 L52.104,14 C51.824,14 51.544,14.168 51.628,14.476 L55.464,27.44 C55.576,27.832 55.632,28 55.968,28 L58.46,28 Z M97.66,28.14 C100.712,28.14 102.728,26.376 103.568,23.408 L104.94,18.62 C105.78,15.652 104.576,13.888 101.496,13.888 L92.564,13.888 C89.484,13.888 87.468,15.652 86.628,18.62 L85.284,23.38 C84.444,26.348 85.648,28.14 88.728,28.14 L97.66,28.14 Z M97.8,25.116 L90.044,25.116 C88.84,25.116 88.28,24.528 88.644,23.352 L89.988,18.676 C90.324,17.5 91.192,16.884 92.452,16.884 L100.152,16.884 C101.384,16.884 101.916,17.5 101.58,18.676 L100.236,23.352 C99.872,24.528 99.032,25.116 97.8,25.116 Z M129.58,28.112 C133.472,28.112 135.908,26.516 136.972,22.708 C137.98,19.264 136.664,17.36 132.772,17.136 L120.256,16.408 C118.24,16.296 117.876,15.288 118.324,13.776 C118.8,12.068 119.892,11.396 121.628,11.396 L133.948,11.396 C135.404,11.396 135.992,11.956 135.88,13.132 C135.824,13.496 135.964,13.692 136.356,13.692 L138.54,13.692 C138.932,13.692 139.212,13.496 139.324,13.132 C140.192,10.052 139.128,8.288 135.264,8.288 L122.3,8.288 C118.408,8.288 116,9.884 114.908,13.664 C113.928,17.136 115.216,19.04 119.108,19.264 L131.652,19.992 C133.64,20.104 134.004,21.112 133.556,22.624 C133.08,24.332 131.988,25.004 130.252,25.004 L117.512,25.004 C116.056,25.004 115.468,24.444 115.58,23.268 C115.636,22.904 115.496,22.708 115.104,22.708 L112.92,22.708 C112.5,22.708 112.248,22.904 112.136,23.268 C111.268,26.348 112.332,28.112 116.196,28.112 L129.58,28.112 Z M151.364,28 C151.56,28 151.84,27.86 151.924,27.58 L152.54,25.396 C152.624,25.116 152.512,24.976 152.204,24.976 L146.492,24.976 C145.4,24.976 144.896,24.388 145.204,23.212 L146.996,16.996 L154.556,16.996 C154.724,16.996 155.004,16.856 155.088,16.576 L155.676,14.42 C155.76,14.14 155.676,14 155.368,14 L147.864,14 L148.368,12.208 C148.452,11.928 148.34,11.788 148.06,11.788 L145.54,11.788 C145.26,11.788 145.092,11.928 145.008,12.208 L144.504,14 L142.152,14 C141.872,14 141.676,14.14 141.592,14.448 L140.976,16.576 C140.892,16.856 141.004,16.996 141.284,16.996 L143.636,16.996 L141.844,23.24 C141.004,26.208 142.18,28 145.26,28 L151.364,28 Z M165.672,28.112 C167.828,28.112 168.528,27.608 169.536,26.656 L169.788,26.656 L169.536,27.58 C169.452,27.86 169.592,28 169.788,28 L172.336,28 C172.616,28 172.812,27.86 172.896,27.58 L176.648,14.42 C176.732,14.14 176.648,14 176.368,14 L173.848,14 C173.568,14 173.372,14.14 173.288,14.42 L170.74,23.324 C170.432,24.5 169.592,25.088 168.36,25.088 L160.576,25.088 C159.344,25.088 158.868,24.5 159.176,23.324 L161.696,14.42 C161.78,14.14 161.696,14 161.416,14 L158.896,14 C158.616,14 158.42,14.14 158.336,14.42 L155.788,23.38 C154.92,26.348 156.18,28.112 159.232,28.112 L165.672,28.112 Z M186.644,28.14 C188.8,28.14 189.5,27.636 190.508,26.684 L190.76,26.684 L190.508,27.58 C190.424,27.86 190.508,28 190.788,28 L193.308,28 C193.588,28 193.784,27.86 193.868,27.58 L199.244,8.82 C199.328,8.54 199.216,8.4 198.936,8.4 L196.388,8.4 C196.192,8.4 195.968,8.54 195.884,8.82 L194.008,15.344 L193.756,15.344 C193.308,14.392 192.888,13.888 190.732,13.888 L184.292,13.888 C181.24,13.888 178.972,15.652 178.104,18.62 L176.76,23.38 C175.892,26.348 177.124,28.14 180.204,28.14 L186.644,28.14 Z M189.612,25.116 L181.408,25.116 C180.316,25.116 179.756,24.528 180.12,23.352 L181.464,18.676 C181.772,17.5 182.696,16.884 183.788,16.884 L191.992,16.884 C192.916,16.884 193.364,17.5 193.056,18.676 L191.712,23.352 C191.348,24.528 190.536,25.116 189.612,25.116 Z M204.144,11.676 C204.424,11.676 204.62,11.536 204.704,11.256 L205.404,8.82 C205.488,8.54 205.376,8.4 205.096,8.4 L202.576,8.4 C202.296,8.4 202.128,8.54 202.044,8.82 L201.344,11.256 C201.26,11.536 201.344,11.676 201.624,11.676 L204.144,11.676 Z M199.468,28 C199.748,28 199.944,27.86 200.028,27.58 L203.78,14.42 C203.864,14.14 203.78,14 203.5,14 L200.98,14 C200.7,14 200.504,14.14 200.42,14.42 L196.668,27.58 C196.584,27.86 196.668,28 196.948,28 L199.468,28 Z M216.268,28.14 C219.32,28.14 221.336,26.376 222.176,23.408 L223.548,18.62 C224.388,15.652 223.184,13.888 220.104,13.888 L211.172,13.888 C208.092,13.888 206.076,15.652 205.236,18.62 L203.892,23.38 C203.052,26.348 204.256,28.14 207.336,28.14 L216.268,28.14 Z M216.408,25.116 L208.652,25.116 C207.448,25.116 206.888,24.528 207.252,23.352 L208.596,18.676 C208.932,17.5 209.8,16.884 211.06,16.884 L218.76,16.884 C219.992,16.884 220.524,17.5 220.188,18.676 L218.844,23.352 C218.48,24.528 217.64,25.116 216.408,25.116 Z" id="path-2"></path>
    </defs>
    <g id="页面-1" stroke="none" stroke-width="1" fill="none" fill-rule="evenodd">
        <g id="手机号验证" transform="translate(-58.000000, -530.000000)" fill-rule="nonzero">
            <g id="jowo-studio黑红" transform="translate(59.000000, 522.000000)">
                <g id="J">
                    <use fill="#000000" xlink:href="#path-1"></use>
                    <use fill="#F44336" xlink:href="#path-1"></use>
                </g>
                <g id="owoStudio" fill="#000000">
                    <use xlink:href="#path-2"></use>
                    <use fill-opacity="0.700529939" xlink:href="#path-2"></use>
                </g>
            </g>
        </g>
    </g>
</svg>